<?xml version="1.0" encoding="utf-8"?>
<!-- Generator: Adobe Illustrator 16.0.0, SVG Export Plug-In . SVG Version: 6.00 Build 0)  -->
<!DOCTYPE svg PUBLIC "-//W3C//DTD SVG 1.1//EN" "http://www.w3.org/Graphics/SVG/1.1/DTD/svg11.dtd">
<svg version="1.1" id="Слой_1" xmlns="http://www.w3.org/2000/svg" xmlns:xlink="http://www.w3.org/1999/xlink" x="0px" y="0px"
	 width="50px" height="50px" viewBox="0 0 50 50" enable-background="new 0 0 50 50" xml:space="preserve">
<g id="Фигура_1">
	<g>
		<path fill-rule="evenodd" clip-rule="evenodd" fill="#EB0029" d="M30,28H16v2h14V28z M16,34h14v-2H16V34z M32,39
			c0,0-17.063,0-18,0s-1-1-1-1V12c0,0-0.076-1,1-1h18c0,0,1,0.064,1,1c0,0,0,8.668,0,16h2V12c0-1.586-1.305-3-3-3c-1.697,0-7,0-7,0
			H14c-1.517,0-3,1.414-3,3v26.125C11,39.71,12.233,41,13.75,41h18.5c1.516,0,2.75-1.29,2.75-2.875V38h-2C33,38.938,32,39,32,39z
			 M16,16v2h9v-2H16z M30,20H16v2h14V20z M30,23.999H16V26h14V23.999z M37,30v1h-1v1h-1v1h-1v-1h-2v2h1v1h1v1h1v-1h1v-1h1v-1h1v-1h1
			v-2H37z"/>
	</g>
</g>
</svg>
