<?xml version="1.0" encoding="utf-8"?>
<!-- Generator: Adobe Illustrator 16.0.0, SVG Export Plug-In . SVG Version: 6.00 Build 0)  -->
<!DOCTYPE svg PUBLIC "-//W3C//DTD SVG 1.1//EN" "http://www.w3.org/Graphics/SVG/1.1/DTD/svg11.dtd">
<svg version="1.1" id="Слой_1" xmlns="http://www.w3.org/2000/svg" xmlns:xlink="http://www.w3.org/1999/xlink" x="0px" y="0px"
	 width="50px" height="50px" viewBox="0 0 50 50" enable-background="new 0 0 50 50" xml:space="preserve">
<g id="Calculator">
	<g>
		<path fill-rule="evenodd" clip-rule="evenodd" fill="#EB0029" d="M35,9H15c-1.654,0-3,1.345-3,3V15v23c0,1.654,1.346,3,3,3h20
			c1.654,0,3-1.346,3-3V15V12C38,10.345,36.654,9,35,9z M36,38c0,0.553-0.448,1-1,1H15c-0.552,0-1-0.447-1-1V17.816
			C14.314,17.927,14.647,18,15,18h20c0.353,0,0.686-0.073,1-0.185V38z M36,15C36,15.552,35.552,16,35,16H15
			c-0.552,0-1-0.448-1-1.001V12c0-0.553,0.448-1,1-1h20c0.552,0,1,0.447,1,1V15z M22,23h-1v-1C21,21.448,20.553,21,20,21
			S19,21.448,19,22v1h-1c-0.553,0-1,0.447-1,1C17,24.552,17.447,25,18,25h1v1c0,0.553,0.447,1,1,1s1-0.447,1-1v-1h1
			c0.553,0,1-0.447,1-0.999C23,23.448,22.553,23,22,23z M32,23h-4c-0.553,0-1,0.447-1,1C27,24.552,27.447,25,28,25h4
			c0.553,0,1-0.447,1-0.999C33,23.448,32.553,23,32,23z M32,30h-4c-0.553,0-1,0.447-1,1s0.447,1,1,1h4c0.553,0,1-0.447,1-1
			S32.553,30,32,30z M32,34h-4c-0.553,0-1,0.447-1,1s0.447,1,1,1h4c0.553,0,1-0.447,1-1S32.553,34,32,34z M22.707,30.293
			c-0.391-0.391-1.023-0.391-1.414,0L20,31.586l-1.293-1.293c-0.391-0.391-1.023-0.391-1.414,0s-0.391,1.023,0,1.414L18.586,33
			l-1.293,1.293c-0.391,0.391-0.391,1.023,0,1.414C17.488,35.902,17.744,36,18,36s0.512-0.098,0.707-0.293L20,34.414l1.293,1.293
			C21.488,35.902,21.744,36,22,36s0.512-0.098,0.707-0.293c0.391-0.391,0.391-1.023,0-1.414L21.414,33l1.293-1.293
			C23.098,31.316,23.098,30.684,22.707,30.293z"/>
	</g>
</g>
</svg>
