<?xml version="1.0" encoding="utf-8"?>
<!-- Generator: Adobe Illustrator 16.0.0, SVG Export Plug-In . SVG Version: 6.00 Build 0)  -->
<!DOCTYPE svg PUBLIC "-//W3C//DTD SVG 1.1//EN" "http://www.w3.org/Graphics/SVG/1.1/DTD/svg11.dtd">
<svg version="1.1" id="Слой_1" xmlns="http://www.w3.org/2000/svg" xmlns:xlink="http://www.w3.org/1999/xlink" x="0px" y="0px"
	 width="50px" height="50px" viewBox="0 0 50 50" enable-background="new 0 0 50 50" xml:space="preserve">
<g id="_x31__3_">
	<g>
		<path fill="#343434" d="M25,9c-6.628,0-12,5.373-12,12c0,5.018,10.005,20.01,12,20c1.964,0.01,12-15.05,12-20
			C37,14.373,31.627,9,25,9z M25,38c-1.663,0.009-10-12.819-10-17c0-5.522,4.478-10,10-10s10,4.478,10,10
			C35,25.125,26.637,38.009,25,38z M25,16c-2.762,0-5,2.238-5,5s2.238,5,5,5s5-2.238,5-5S27.762,16,25,16z M25,24
			c-1.657,0-3-1.343-3-3s1.343-3,3-3s3,1.343,3,3S26.657,24,25,24z"/>
	</g>
</g>
</svg>
