<?xml version="1.0" encoding="utf-8"?>
<!-- Generator: Adobe Illustrator 16.0.0, SVG Export Plug-In . SVG Version: 6.00 Build 0)  -->
<!DOCTYPE svg PUBLIC "-//W3C//DTD SVG 1.1//EN" "http://www.w3.org/Graphics/SVG/1.1/DTD/svg11.dtd">
<svg version="1.1" id="Слой_1" xmlns="http://www.w3.org/2000/svg" xmlns:xlink="http://www.w3.org/1999/xlink" x="0px" y="0px"
	 width="50px" height="64px" viewBox="0 0 50 50" enable-background="new 0 0 50 50" xml:space="preserve">
<g id="_x31__3_">
	<g>
		<path fill="#343434" d="M25-7C11.468-7,0.5,3.746,0.5,17c0,10.035,20.427,40.02,24.5,40c4.01,0.02,24.5-30.1,24.5-40
			C49.5,3.746,38.53-7,25-7z M25,51C21.604,51.018,4.583,25.362,4.583,17C4.583,5.956,13.726-3,25-3
			c11.273,0,20.417,8.956,20.417,20C45.417,25.25,28.342,51.018,25,51z M25,7c-5.64,0-10.208,4.476-10.208,10S19.36,27,25,27
			c5.639,0,10.208-4.476,10.208-10S30.639,7,25,7z M25,23c-3.383,0-6.125-2.686-6.125-6s2.742-6,6.125-6
			c3.384,0,6.125,2.686,6.125,6S28.384,23,25,23z"/>
	</g>
</g>
</svg>
