<?xml version="1.0" encoding="utf-8"?>
<!-- Generator: Adobe Illustrator 16.0.0, SVG Export Plug-In . SVG Version: 6.00 Build 0)  -->
<!DOCTYPE svg PUBLIC "-//W3C//DTD SVG 1.1//EN" "http://www.w3.org/Graphics/SVG/1.1/DTD/svg11.dtd">
<svg version="1.1" id="Фигура_1_1_" xmlns="http://www.w3.org/2000/svg" xmlns:xlink="http://www.w3.org/1999/xlink" x="0px"
	 y="0px" width="30px" height="30px" viewBox="0 0 20 20" enable-background="new 0 0 23 23" xml:space="preserve">
<g id="Фигура_1">
	<g>
		<path fill="#EB0029" d="M0.125,0v20h20V0H0.125z M19.125,19h-18V1h18V19z M6.125,11h1v1h1v1h1v1h1v-1h1v-1h1v-1h1v-1h1V9h1V8h1V6
			h-1v1h-1v1h-1v1h-1v1h-1v1h-1v1h-1v-1h-1v-1h-1V9h-1V8h-1v2h1V11z"/>
	</g>
</g>
</svg>
