<?xml version="1.0" encoding="utf-8"?>
<svg xmlns="http://www.w3.org/2000/svg"
	xmlns:xlink="http://www.w3.org/1999/xlink"
	width="25px" height="25px" viewBox="0 0 25 25">
<path fillRule="evenodd" d="M 24.5 23.08C 24.5 23.08 23.08 24.5 23.08 24.5 23.08 24.5 12 13.42 12 13.42 12 13.42 0.92 24.5 0.92 24.5 0.92 24.5-0.5 23.08-0.5 23.08-0.5 23.08 10.58 12 10.58 12 10.58 12-0.5 0.92-0.5 0.92-0.5 0.92 0.92-0.5 0.92-0.5 0.92-0.5 12 10.58 12 10.58 12 10.58 23.08-0.5 23.08-0.5 23.08-0.5 24.5 0.92 24.5 0.92 24.5 0.92 13.42 12 13.42 12 13.42 12 24.5 23.08 24.5 23.08Z" fill="rgb(234,0,41)"/></svg>