<?xml version="1.0" encoding="utf-8"?>
<!-- Generator: Adobe Illustrator 16.0.0, SVG Export Plug-In . SVG Version: 6.00 Build 0)  -->
<!DOCTYPE svg PUBLIC "-//W3C//DTD SVG 1.1//EN" "http://www.w3.org/Graphics/SVG/1.1/DTD/svg11.dtd">
<svg version="1.1" id="Слой_1" xmlns="http://www.w3.org/2000/svg" xmlns:xlink="http://www.w3.org/1999/xlink" x="0px" y="0px"
	 width="46px" height="64px" viewBox="0 0 46 64" enable-background="new 0 0 46 64" xml:space="preserve">
<g id="_x39__1_">
	<g>
		<path fill="#343434" d="M23,58c1.656,0,3-1.344,3-2.999c0-1.656-1.344-3-3-3c-1.656,0-3,1.344-3,3C20,56.656,21.344,58,23,58z
			 M38.001,0H8C3.583,0,0,3.582,0,8v48.001C0,60.419,3.583,64,8,64h30C42.416,64,46,60.419,46,56.001V8C46,3.582,42.416,0,38.001,0z
			 M42,56.001C42,58.208,40.209,60,38.001,60H8C5.792,60,4,58.208,4,56.001v-6h38V56.001z M42,45.999H4v-32h38V45.999z M42,10H4V8
			C4,5.792,5.792,4,8,4h30C40.209,4,42,5.792,42,8V10z"/>
	</g>
</g>
</svg>
