<?xml version="1.0" encoding="utf-8"?>
<!-- Generator: Adobe Illustrator 16.0.0, SVG Export Plug-In . SVG Version: 6.00 Build 0)  -->
<!DOCTYPE svg PUBLIC "-//W3C//DTD SVG 1.1//EN" "http://www.w3.org/Graphics/SVG/1.1/DTD/svg11.dtd">
<svg version="1.1" id="Слой_1" xmlns="http://www.w3.org/2000/svg" xmlns:xlink="http://www.w3.org/1999/xlink" x="0px" y="0px"
	 width="50px" height="50px" viewBox="0 0 50 50" enable-background="new 0 0 50 50" xml:space="preserve">
<g id="_x39__1_">
	<g>
		<path fill="#343434" d="M25,38c0.828,0,1.5-0.672,1.5-1.5S25.828,35,25,35s-1.5,0.672-1.5,1.5S24.172,38,25,38z M32.5,9h-15
			c-2.209,0-4,1.791-4,4v24c0,2.209,1.791,4,4,4h15c2.209,0,4-1.791,4-4V13C36.5,10.791,34.709,9,32.5,9z M34.5,37
			c0,1.104-0.896,2-2,2h-15c-1.104,0-2-0.896-2-2v-3h19V37z M34.5,32h-19V16h19V32z M34.5,14h-19v-1c0-1.104,0.896-2,2-2h15
			c1.104,0,2,0.896,2,2V14z"/>
	</g>
</g>
</svg>
