<?xml version="1.0" encoding="utf-8"?>
<!-- Generator: Adobe Illustrator 16.0.0, SVG Export Plug-In . SVG Version: 6.00 Build 0)  -->
<!DOCTYPE svg PUBLIC "-//W3C//DTD SVG 1.1//EN" "http://www.w3.org/Graphics/SVG/1.1/DTD/svg11.dtd">
<svg version="1.1" id="Слой_1" xmlns="http://www.w3.org/2000/svg" xmlns:xlink="http://www.w3.org/1999/xlink" x="0px" y="0px"
	 width="108px" height="108px" viewBox="0 0 108 108" enable-background="new 0 0 108 108" xml:space="preserve">
<g id="Facebook_Logo_Button._Attribute_as_Bogdan_Rosu_from_Flaticon.com_копия_3_">
	<g>
		<path fill="#4F4F4F" d="M54,0C24.22,0,0,24.223,0,54c0,29.779,24.22,54,54,54c29.779,0,54-24.221,54-54C108,24.223,83.779,0,54,0z
			 M67.432,55.901h-8.785c0,14.034,0,31.314,0,31.314H45.628c0,0,0-17.112,0-31.314h-6.191v-11.07h6.191v-7.159
			c0-5.129,2.433-13.139,13.135-13.139l9.649,0.04V35.31c0,0-5.866,0-7.003,0c-1.14,0-2.763,0.571-2.763,3.021v6.498h9.92
			L67.432,55.901z"/>
	</g>
</g>
</svg>
