<?xml version="1.0" encoding="utf-8"?>
<!-- Generator: Adobe Illustrator 16.0.0, SVG Export Plug-In . SVG Version: 6.00 Build 0)  -->
<!DOCTYPE svg PUBLIC "-//W3C//DTD SVG 1.1//EN" "http://www.w3.org/Graphics/SVG/1.1/DTD/svg11.dtd">
<svg version="1.1" id="Слой_1" xmlns="http://www.w3.org/2000/svg" xmlns:xlink="http://www.w3.org/1999/xlink" x="0px" y="0px"
	 width="38px" height="38px" viewBox="0 0 38 38" enable-background="new 0 0 38 38" xml:space="preserve">
<g id="Facebook_Logo_Button._Attribute_as_Bogdan_Rosu_from_Flaticon.com_копия_3_">
	<g>
		<path fill="#4867aa" d="M19,0C8.522,0,0,8.523,0,19c0,10.478,8.522,19,19,19s19-8.522,19-19C38,8.523,29.478,0,19,0z
			 M23.726,19.669h-3.091c0,4.938,0,11.018,0,11.018h-4.581c0,0,0-6.021,0-11.018h-2.178v-3.895h2.178v-2.519
			c0-1.805,0.856-4.623,4.622-4.623l3.395,0.014v3.778c0,0-2.064,0-2.464,0c-0.401,0-0.972,0.201-0.972,1.063v2.286h3.49
			L23.726,19.669z"/>
	</g>
</g>
</svg>
