<?xml version="1.0" encoding="utf-8"?>
<!-- Generator: Adobe Illustrator 16.0.0, SVG Export Plug-In . SVG Version: 6.00 Build 0)  -->
<!DOCTYPE svg PUBLIC "-//W3C//DTD SVG 1.1//EN" "http://www.w3.org/Graphics/SVG/1.1/DTD/svg11.dtd">
<svg version="1.1" id="Слой_1" xmlns="http://www.w3.org/2000/svg" xmlns:xlink="http://www.w3.org/1999/xlink" x="0px" y="0px"
	 width="35px" height="35px" viewBox="0 0 52 52" enable-background="new 0 0 52 52" xml:space="preserve">
<g id="Forma_1">
	<g>
		<path fill="#F15E5E" d="M25.999,31.206c2.871,0,5.209-2.334,5.209-5.206c0-1.133-0.371-2.178-0.987-3.034
			c-0.944-1.312-2.482-2.172-4.221-2.172c-1.739,0-3.276,0.86-4.223,2.172c-0.615,0.854-0.983,1.901-0.986,3.033
			C20.792,28.872,23.128,31.206,25.999,31.206z M37.364,19.633v-4.362v-0.65l-0.651,0.002l-4.363,0.015l0.019,5.011L37.364,19.633z
			 M26,0C11.663,0,0,11.663,0,26c0,14.338,11.663,26,26,26c14.338,0,26-11.662,26-26C52,11.663,40.338,0,26,0z M40.788,22.966
			v12.106c0,3.153-2.564,5.718-5.716,5.718H16.931c-3.155,0-5.718-2.564-5.718-5.718V22.966v-6.037c0-3.153,2.563-5.715,5.718-5.715
			h18.141c3.152,0,5.717,2.562,5.717,5.715V22.966z M34.087,26c0,4.458-3.626,8.089-8.087,8.089S17.913,30.458,17.913,26
			c0-1.072,0.213-2.097,0.596-3.034h-4.415v12.106c0,1.565,1.271,2.832,2.834,2.832h18.141c1.566,0,2.832-1.268,2.832-2.832V22.966
			h-4.414C33.871,23.903,34.087,24.928,34.087,26z"/>
	</g>
</g>
</svg>
