<?xml version="1.0" encoding="utf-8"?>
<!-- Generator: Adobe Illustrator 16.0.0, SVG Export Plug-In . SVG Version: 6.00 Build 0)  -->
<!DOCTYPE svg PUBLIC "-//W3C//DTD SVG 1.1//EN" "http://www.w3.org/Graphics/SVG/1.1/DTD/svg11.dtd">
<svg version="1.1" id="Слой_1" xmlns="http://www.w3.org/2000/svg" xmlns:xlink="http://www.w3.org/1999/xlink" x="0px" y="0px"
	 width="108px" height="108px" viewBox="0 0 108 108" enable-background="new 0 0 108 108" xml:space="preserve">
<g id="Forma_1">
	<g>
		<path fill="#F15E5E" d="M53.997,64.813c5.964,0,10.82-4.847,10.82-10.813c0-2.354-0.771-4.524-2.052-6.303
			c-1.961-2.723-5.156-4.509-8.766-4.509s-6.804,1.786-8.768,4.509c-1.28,1.776-2.044,3.95-2.05,6.3
			C43.183,59.966,48.034,64.813,53.997,64.813z M77.604,40.776v-9.061v-1.35l-1.355,0.003l-9.061,0.03l0.039,10.408L77.604,40.776z
			 M54,0C24.223,0,0,24.223,0,54c0,29.779,24.223,54,54,54c29.779,0,54-24.221,54-54C108,24.223,83.779,0,54,0z M84.713,47.697
			v25.146c0,6.549-5.326,11.875-11.87,11.875h-37.68c-6.551,0-11.875-5.326-11.875-11.875V47.697V35.16
			c0-6.549,5.324-11.87,11.875-11.87H72.84c6.547,0,11.873,5.321,11.873,11.87V47.697z M70.797,54
			c0,9.26-7.532,16.801-16.797,16.801S37.203,63.26,37.203,54c0-2.226,0.444-4.355,1.239-6.303h-9.171v25.146
			c0,3.251,2.641,5.882,5.887,5.882h37.677c3.252,0,5.881-2.633,5.881-5.882V47.697h-9.168C70.348,49.645,70.797,51.774,70.797,54z"
			/>
	</g>
</g>
</svg>
