<?xml version="1.0" encoding="utf-8"?>
<!-- Generator: Adobe Illustrator 16.0.0, SVG Export Plug-In . SVG Version: 6.00 Build 0)  -->
<!DOCTYPE svg PUBLIC "-//W3C//DTD SVG 1.1//EN" "http://www.w3.org/Graphics/SVG/1.1/DTD/svg11.dtd">
<svg version="1.1" id="Слой_1" xmlns="http://www.w3.org/2000/svg" xmlns:xlink="http://www.w3.org/1999/xlink" x="0px" y="0px"
	 width="94px" height="57px" viewBox="0 0 94 57" enable-background="new 0 0 94 57" xml:space="preserve">
<g id="cmyk" display="none">
	<g display="inline">
		<path fill="#1D1D1B" d="M30.651,35.85v1.408h1.708V35.85h0.216v3.205H32.36v-1.603h-1.708v1.603h-0.216V35.85H30.651z"/>
		<path fill="#1D1D1B" d="M36.228,37.461h-1.24v1.404h1.387v0.189h-1.603V35.85H36.3v0.19h-1.313v1.231h1.24L36.228,37.461
			L36.228,37.461z"/>
		<path fill="#1D1D1B" d="M38.355,35.85h0.216v3.016h1.383v0.189h-1.599V35.85z"/>
		<path fill="#1D1D1B" d="M42.071,35.85v3.205h-0.216V35.85H42.071z"/>
		<path fill="#1D1D1B" d="M46.004,39.055l-0.468-0.789c-0.193-0.3-0.303-0.48-0.405-0.666h-0.014
			c-0.097,0.186-0.197,0.361-0.39,0.67l-0.441,0.785h-0.257l0.983-1.627l-0.941-1.578h0.252l0.496,0.855
			c0.129,0.215,0.225,0.377,0.321,0.547h0.009c0.097-0.182,0.193-0.332,0.326-0.547l0.519-0.855h0.257l-0.992,1.56l0.996,1.646
			H46.004z"/>
		<path fill="#1D1D1B" d="M50.668,35.888c0.18-0.038,0.4-0.062,0.662-0.062c0.367,0,0.647,0.096,0.816,0.271
			c0.148,0.147,0.239,0.356,0.239,0.628c0,0.276-0.077,0.48-0.216,0.638c-0.197,0.237-0.532,0.361-0.909,0.361
			c-0.138,0-0.267-0.005-0.376-0.038v1.369h-0.217V35.888z M50.885,37.486c0.109,0.032,0.242,0.047,0.395,0.047
			c0.551,0,0.886-0.281,0.886-0.79c0-0.505-0.353-0.728-0.845-0.728c-0.202,0-0.354,0.02-0.436,0.038V37.486z"/>
		<path fill="#1D1D1B" d="M54.416,35.85h0.216v3.016h1.383v0.189h-1.599V35.85z"/>
		<path fill="#1D1D1B" d="M57.949,35.85v1.936c0,0.814,0.367,1.127,0.826,1.127c0.511,0,0.863-0.342,0.863-1.127V35.85h0.221v1.912
			c0,0.984-0.514,1.346-1.098,1.346c-0.542,0-1.029-0.328-1.029-1.308v-1.95H57.949L57.949,35.85z"/>
		<path fill="#1D1D1B" d="M61.949,38.698c0.176,0.124,0.418,0.214,0.68,0.214c0.461,0,0.744-0.271,0.744-0.666
			c0-0.361-0.18-0.57-0.625-0.751c-0.5-0.181-0.799-0.447-0.799-0.884c0-0.472,0.377-0.814,0.9-0.814c0.29,0,0.51,0.082,0.615,0.153
			l-0.082,0.189c-0.082-0.062-0.28-0.151-0.547-0.151c-0.5,0-0.67,0.332-0.67,0.584c0,0.357,0.197,0.538,0.643,0.719
			c0.511,0.213,0.781,0.451,0.781,0.932c0,0.467-0.322,0.885-0.983,0.885c-0.267,0-0.578-0.096-0.739-0.219L61.949,38.698z"/>
	</g>
	<g display="inline">
		<rect x="29.9" y="18.639" fill="#FFFFFF" width="34.2" height="15.2"/>
		<g>
			<rect x="37.5" y="28.775" fill="#C9002C" width="5.073" height="5.064"/>
			<rect x="37.5" y="18.639" fill="#C9002C" width="5.073" height="5.063"/>
			<polygon fill="#C9002C" points="47.646,18.639 47.646,23.702 47.646,28.775 47.646,33.839 64.1,33.839 64.1,18.639 			"/>
			<polygon fill="#C9002C" points="32.427,28.775 32.427,23.702 32.427,18.639 29.9,18.639 29.9,33.839 32.427,33.839 			"/>
		</g>
		<g>
			<path fill="#FFFFFF" d="M57.307,20.535v4.246h4.266v2.885h-4.266v4.27h-2.892v-4.27h-4.243v-2.885h4.243v-4.246H57.307z"/>
		</g>
	</g>
</g>
<g id="rgb">
	<g>
		<path d="M2.065,48.027v3.922h4.696v-3.922h0.593v8.926H6.761V52.49H2.065v4.463H1.472v-8.926H2.065z"/>
		<path d="M17.392,52.515h-3.409v3.91h3.812v0.528h-4.406v-8.926h4.202v0.53h-3.609v3.43h3.408v0.527H17.392z"/>
		<path d="M23.239,48.027h0.593v8.397h3.801v0.528h-4.394V48.027z"/>
		<path d="M33.452,48.027v8.926h-0.593v-8.926H33.452z"/>
		<path d="M44.263,56.953l-1.286-2.197c-0.53-0.835-0.832-1.339-1.113-1.855h-0.039c-0.266,0.517-0.542,1.007-1.072,1.866
			l-1.212,2.187h-0.707l2.703-4.531l-2.587-4.395h0.692l1.364,2.383c0.354,0.598,0.619,1.049,0.883,1.522h0.025
			c0.267-0.506,0.53-0.925,0.895-1.522l1.427-2.383h0.707l-2.726,4.343l2.738,4.583H44.263z"/>
		<path d="M57.082,48.134c0.494-0.106,1.101-0.172,1.82-0.172c1.009,0,1.779,0.267,2.243,0.754c0.408,0.41,0.658,0.992,0.658,1.748
			c0,0.77-0.212,1.338-0.594,1.776c-0.542,0.66-1.463,1.006-2.499,1.006c-0.378,0-0.732-0.014-1.033-0.106v3.813h-0.596V48.134z
			 M57.678,52.585c0.301,0.09,0.666,0.131,1.085,0.131c1.514,0,2.435-0.783,2.435-2.2c0-1.406-0.97-2.025-2.322-2.025
			c-0.556,0-0.972,0.054-1.197,0.105V52.585z"/>
		<path d="M67.384,48.027h0.593v8.397h3.801v0.528h-4.394V48.027z"/>
		<path d="M77.095,48.027v5.39c0,2.269,1.01,3.139,2.271,3.139c1.403,0,2.372-0.952,2.372-3.139v-5.39h0.606v5.325
			c0,2.741-1.411,3.747-3.017,3.747c-1.489,0-2.829-0.914-2.829-3.642v-5.431H77.095L77.095,48.027z"/>
		<path d="M88.089,55.96c0.483,0.346,1.149,0.596,1.868,0.596c1.268,0,2.046-0.756,2.046-1.854c0-1.006-0.494-1.588-1.718-2.092
			c-1.375-0.503-2.196-1.245-2.196-2.461c0-1.313,1.036-2.268,2.476-2.268c0.797,0,1.4,0.229,1.69,0.427l-0.226,0.527
			c-0.226-0.171-0.771-0.421-1.503-0.421c-1.374,0-1.841,0.924-1.841,1.626c0,0.995,0.542,1.498,1.766,2.001
			c1.404,0.593,2.147,1.257,2.147,2.595c0,1.3-0.886,2.464-2.703,2.464c-0.732,0-1.589-0.267-2.031-0.609L88.089,55.96z"/>
	</g>
	<g>
		<rect x="0" y="0.1" fill="#FFFFFF" width="94" height="42.328"/>
		<g>
			<rect x="20.888" y="28.326" fill="#EB0029" width="13.943" height="14.102"/>
			<rect x="20.888" y="0.1" fill="#EB0029" width="13.943" height="14.101"/>
			<polygon fill="#EB0029" points="48.774,0.1 48.774,14.2 48.774,28.326 48.774,42.428 94,42.428 94,0.1 			"/>
			<polygon fill="#EB0029" points="6.945,28.326 6.945,14.2 6.945,0.1 0,0.1 0,42.428 6.945,42.428 			"/>
		</g>
		<g>
			<path fill="#FFFFFF" d="M75.329,5.381v11.823h11.724v8.035H75.329v11.89h-7.948v-11.89H55.719v-8.035h11.662V5.381H75.329z"/>
		</g>
	</g>
</g>
</svg>
