<?xml version="1.0" encoding="utf-8"?>
<!-- Generator: Adobe Illustrator 16.0.0, SVG Export Plug-In . SVG Version: 6.00 Build 0)  -->
<!DOCTYPE svg PUBLIC "-//W3C//DTD SVG 1.1//EN" "http://www.w3.org/Graphics/SVG/1.1/DTD/svg11.dtd">
<svg version="1.1" id="Слой_1" xmlns="http://www.w3.org/2000/svg" xmlns:xlink="http://www.w3.org/1999/xlink" x="0px" y="0px"
	 width="50px" height="50px" viewBox="0 0 50 50" enable-background="new 0 0 50 50" xml:space="preserve">
<g id="_x35__1_">
	<g>
		<path fill="#343434" d="M24.91,14c-3.875,0-6.956,3.101-6.956,7s3.081,7,6.956,7c3.876,0,6.957-3.101,6.957-7S28.786,14,24.91,14z
			 M24.91,26c-2.782,0-4.969-2.2-4.969-5s2.187-5,4.969-5c2.783,0,4.969,2.2,4.969,5S27.693,26,24.91,26z M35.842,26.399
			c0.795-1.6,1.292-3.399,1.292-5.299C37.134,14.399,31.668,9,24.91,9c-6.757,0-12.223,5.399-12.223,12.101
			c0,1.899,0.497,3.699,1.292,5.299l-4.969,8.5c0,0,3.18,0.601,6.36,1.301c2.087,2.4,4.273,4.8,4.273,4.8l4.572-7.8
			c0.298,0,0.496,0,0.795,0s0.497,0,0.795,0l4.571,7.8c0,0,2.087-2.399,4.273-4.8c3.181-0.7,6.36-1.301,6.36-1.301L35.842,26.399z
			 M19.444,37.601c0,0-1.59-1.5-3.081-3C14.277,34,12.09,33.399,12.09,33.399l2.981-5.199c1.789,2.3,4.273,4,7.155,4.699
			L19.444,37.601z M24.91,31.3c-5.665,0-10.236-4.6-10.236-10.3s4.571-10.3,10.236-10.3c5.665,0,10.236,4.6,10.236,10.3
			S30.575,31.3,24.91,31.3z M33.457,34.601c-1.491,1.5-3.081,3-3.081,3l-2.782-4.701C30.476,32.2,32.96,30.5,34.749,28.2
			l2.981,5.199C37.73,33.3,35.644,34,33.457,34.601z"/>
	</g>
</g>
</svg>
