<?xml version="1.0" encoding="utf-8"?>
<!-- Generator: Adobe Illustrator 16.0.0, SVG Export Plug-In . SVG Version: 6.00 Build 0)  -->
<!DOCTYPE svg PUBLIC "-//W3C//DTD SVG 1.1//EN" "http://www.w3.org/Graphics/SVG/1.1/DTD/svg11.dtd">
<svg version="1.1" id="Слой_1" xmlns="http://www.w3.org/2000/svg" xmlns:xlink="http://www.w3.org/1999/xlink" x="0px" y="0px"
	 width="50px" height="50px" viewBox="0 0 50 50" enable-background="new 0 0 50 50" xml:space="preserve">
<g id="_x39_">
	<g>
		<path fill="#343434" d="M26.048,19.711c0.393-0.395,0.393-1.032,0-1.426l-6.942-7.988c-0.209-0.21-0.486-0.3-0.76-0.285
			c-0.273-0.015-0.552,0.075-0.761,0.285l-6.942,7.988c-0.392,0.394-0.392,1.031,0,1.426c0.393,0.394,1.028,0.394,1.42,0
			l5.299-6.098v24.4h2V13.649l5.267,6.062C25.021,20.104,25.656,20.104,26.048,19.711z M38.361,36.014h-14c-0.553,0-1,0.446-1,0.999
			s0.447,1.001,1,1.001h14c0.552,0,1-0.448,1-1.001S38.913,36.014,38.361,36.014z M26.361,14.014h12c0.552,0,1-0.476,1-1.028
			s-0.448-1.001-1-1.001h-12c-0.553,0-1,0.448-1,1.001S25.809,14.014,26.361,14.014z M38.361,23.998h-14c-0.553,0-1,0.448-1,1.001
			s0.447,1.001,1,1.001h14c0.552,0,1-0.448,1-1.001S38.913,23.998,38.361,23.998z M38.361,17.991l-8,0.022c-0.553,0-1,0.426-1,0.979
			s0.447,1.021,1,1.021l8-0.021c0.552,0,1-0.448,1-1.001S38.913,17.991,38.361,17.991z M38.361,30.005h-14c-0.553,0-1,0.448-1,1.001
			s0.447,1.001,1,1.001h14c0.552,0,1-0.448,1-1.001S38.913,30.005,38.361,30.005z"/>
	</g>
</g>
</svg>
