<?xml version="1.0" encoding="utf-8"?>
<!-- Generator: Adobe Illustrator 16.0.0, SVG Export Plug-In . SVG Version: 6.00 Build 0)  -->
<!DOCTYPE svg PUBLIC "-//W3C//DTD SVG 1.1//EN" "http://www.w3.org/Graphics/SVG/1.1/DTD/svg11.dtd">
<svg version="1.1" id="Слой_1" xmlns="http://www.w3.org/2000/svg" xmlns:xlink="http://www.w3.org/1999/xlink" x="0px" y="0px"
	 width="50px" height="50px" viewBox="0 0 50 50" enable-background="new 0 0 50 50" xml:space="preserve">
<g id="_x34_">
	<g>
		<path fill="#343434" d="M34.98,14c0-2.21-1.787-4-3.992-4H19.012c-2.205,0-3.992,1.79-3.992,4c-6.837,0-5.988-0.001-5.988,4
			c0,3.313,2.681,6,5.988,6c0.238,0,0.467-0.038,0.696-0.07c1.34,3.924,4.497,7.459,8.286,7.998V38h-2.994
			c-0.552,0-0.998,0.447-0.998,1c0,0.552,0.446,1,0.998,1h7.984c0.551,0,0.998-0.448,0.998-1c0-0.553-0.447-1-0.998-1h-2.994v-6.072
			c3.789-0.539,6.946-4.074,8.286-7.998C34.514,23.962,34.742,24,34.98,24c3.308,0,5.988-2.687,5.988-6
			C40.969,13.999,41.816,14,34.98,14z M15.02,22c-2.205,0-3.992-1.791-3.992-4s0.041-2,3.992-2V22z M32.984,20
			c0,4.418-3.575,10-7.984,10c-4.41,0-7.984-5.582-7.984-10v-6c0-0.99,1.039-2,1.996-2h11.977c0.957,0,1.996,0.979,1.996,2V20z
			 M34.98,22v-6c3.951,0,3.992-0.209,3.992,2S37.186,22,34.98,22z"/>
	</g>
</g>
</svg>
