<?xml version="1.0" encoding="utf-8"?>
<!-- Generator: Adobe Illustrator 16.0.0, SVG Export Plug-In . SVG Version: 6.00 Build 0)  -->
<!DOCTYPE svg PUBLIC "-//W3C//DTD SVG 1.1//EN" "http://www.w3.org/Graphics/SVG/1.1/DTD/svg11.dtd">
<svg version="1.1" id="Слой_1" xmlns="http://www.w3.org/2000/svg" xmlns:xlink="http://www.w3.org/1999/xlink" x="0px" y="0px"
	 width="50px" height="50px" viewBox="0 0 50 50" enable-background="new 0 0 50 50" xml:space="preserve">
<g id="_x34__1_">
	<g>
		<path fill="#EB0029" d="M37.567,21.19L23.33,35.27c-2.358,2.333-6.184,2.333-8.542,0c-2.359-2.333-2.359-6.114,0-8.447
			L27.602,14.15c1.572-1.555,4.122-1.555,5.695,0c1.572,1.556,1.572,4.077,0,5.632L20.482,32.454c-0.786,0.777-2.061,0.777-2.847,0
			c-0.787-0.778-0.787-2.038,0-2.816l11.39-11.263l-1.424-1.408L16.212,28.23c-1.573,1.555-1.573,4.076,0,5.631
			c1.572,1.556,4.122,1.556,5.694,0L34.721,21.19c2.358-2.333,2.358-6.115,0-8.447c-2.359-2.333-6.184-2.333-8.543,0L12.652,26.118
			l0.049,0.049c-2.457,3.124-2.241,7.64,0.663,10.511c2.903,2.871,7.47,3.086,10.629,0.655l0.049,0.049l14.949-14.783L37.567,21.19z
			"/>
	</g>
</g>
</svg>
