<?xml version="1.0" encoding="utf-8"?>
<!-- Generator: Adobe Illustrator 16.0.0, SVG Export Plug-In . SVG Version: 6.00 Build 0)  -->
<!DOCTYPE svg PUBLIC "-//W3C//DTD SVG 1.1//EN" "http://www.w3.org/Graphics/SVG/1.1/DTD/svg11.dtd">
<svg version="1.1" id="Слой_1" xmlns="http://www.w3.org/2000/svg" xmlns:xlink="http://www.w3.org/1999/xlink" x="0px" y="0px"
	 width="108px" height="108px" viewBox="0 0 108 108" enable-background="new 0 0 108 108" xml:space="preserve">
<g id="Twitter_Logo_In_Circular_Black_Button._Attribute_as_Linh_Pham_from_Flaticon.com_копия">
	<g>
		<path fill="#4F4F4F" d="M54,0C24.177,0,0,24.177,0,54c0,29.82,24.177,54,54,54c29.822,0,54-24.18,54-54C108,24.177,83.822,0,54,0z
			 M77.119,41.639c0.027,0.54,0.038,1.081,0.038,1.621c0,16.56-12.011,35.666-33.948,35.654c-6.73,0.006-13.006-2.104-18.284-5.73
			c0.933,0.117,1.885,0.18,2.848,0.18c5.59,0.012,10.734-2.004,14.813-5.389c-5.224-0.125-9.625-3.816-11.141-8.885
			c0.725,0.157,1.478,0.242,2.243,0.248c1.091,0.005,2.14-0.145,3.141-0.424c-5.459-1.211-9.576-6.386-9.576-12.556v-0.166
			c1.608,0.972,3.447,1.563,5.404,1.651c-3.194-2.311-5.301-6.238-5.301-10.658c0-2.333,0.588-4.516,1.614-6.386
			c5.89,7.785,14.68,12.949,24.591,13.591c-0.206-0.927-0.311-1.896-0.311-2.882c0-6.975,5.345-12.545,11.929-12.434
			c3.439,0.057,6.537,1.632,8.709,4.106c2.72-0.525,5.27-1.522,7.576-2.921c-0.889,2.907-2.781,5.334-5.255,6.855
			c2.422-0.271,4.718-0.906,6.855-1.874C81.472,37.726,79.449,39.906,77.119,41.639z"/>
	</g>
</g>
</svg>
