<?xml version="1.0" encoding="utf-8"?>
<!-- Generator: Adobe Illustrator 16.0.0, SVG Export Plug-In . SVG Version: 6.00 Build 0)  -->
<!DOCTYPE svg PUBLIC "-//W3C//DTD SVG 1.1//EN" "http://www.w3.org/Graphics/SVG/1.1/DTD/svg11.dtd">
<svg version="1.1" id="Слой_1" xmlns="http://www.w3.org/2000/svg" xmlns:xlink="http://www.w3.org/1999/xlink" x="0px" y="0px"
	 width="50px" height="50px" viewBox="0 0 50 50" enable-background="new 0 0 50 50" xml:space="preserve">
<g id="Target">
	<g>
		<path fill-rule="evenodd" clip-rule="evenodd" fill="#EB0029" d="M40,23h-1.051C38.457,16.078,32.922,10.543,26,10.05V9
			c0-0.552-0.447-1-1-1s-1,0.448-1,1v1.051C17.078,10.543,11.543,16.078,11.051,23H10c-0.553,0-1,0.448-1,1s0.447,1,1,1h1.051
			c0.492,6.92,6.027,12.458,12.949,12.95V39c0,0.551,0.447,1,1,1s1-0.449,1-1v-1.051C32.922,37.457,38.457,31.92,38.949,25H40
			c0.553,0,1-0.448,1-1S40.553,23,40,23z M35,25h1.949C36.466,30.818,31.818,35.465,26,35.949V34c0-0.553-0.447-1-1-1s-1,0.447-1,1
			v1.949C18.182,35.465,13.534,30.818,13.051,25H15c0.553,0,1-0.448,1-1s-0.447-1-1-1h-1.949C13.534,17.181,18.182,12.534,24,12.05
			V14c0,0.552,0.447,1,1,1s1-0.448,1-1V12.05C31.818,12.534,36.466,17.181,36.949,23H35c-0.553,0-1,0.448-1,1S34.447,25,35,25z
			 M28,24c0-1.654-1.346-3-3-3s-3,1.346-3,3s1.346,3,3,3S28,25.654,28,24z M24,24c0-0.551,0.449-1,1-1s1,0.449,1,1
			c0,0.552-0.449,1-1,1S24,24.551,24,24z M26,18c0-0.552-0.447-1-1-1c-3.859,0-7,3.141-7,7c0,0.552,0.447,1,1,1s1-0.448,1-1
			c0-2.757,2.243-5,5-5C25.553,19,26,18.552,26,18z M31,23c-0.553,0-1,0.448-1,1c0,2.756-2.243,5-5,5c-0.553,0-1,0.447-1,1
			s0.447,1,1,1c3.859,0,7-3.141,7-7C32,23.448,31.553,23,31,23z"/>
	</g>
</g>
</svg>
