<svg xmlns="http://www.w3.org/2000/svg" xmlns:xlink="http://www.w3.org/1999/xlink" preserveAspectRatio="xMidYMid" width="50" height="50" viewBox="0 0 50 50">
  <defs>
    <style>
      .cls-1 {
        stroke: #fff;
        stroke-width: 2px;
        fill: none;
        fill-rule: evenodd;
      }
    </style>
  </defs>
  <path d="M25.000,49.000 C11.745,49.000 1.000,38.255 1.000,25.000 C1.000,11.745 11.745,1.000 25.000,1.000 C38.255,1.000 49.000,11.745 49.000,25.000 C49.000,38.255 38.255,49.000 25.000,49.000 ZM25.000,3.000 C12.850,3.000 3.000,12.850 3.000,25.000 C3.000,37.150 12.850,47.000 25.000,47.000 C37.150,47.000 47.000,37.150 47.000,25.000 C47.000,12.850 37.150,3.000 25.000,3.000 ZM26.000,37.000 L24.000,37.000 L24.000,26.000 L13.000,26.000 L13.000,24.000 L24.000,24.000 L24.000,12.999 L26.000,12.999 L26.000,24.000 L37.000,24.000 L37.000,26.000 L26.000,26.000 L26.000,37.000 Z" class="cls-1"/>
</svg>
