<svg xmlns="http://www.w3.org/2000/svg" xmlns:xlink="http://www.w3.org/1999/xlink" preserveAspectRatio="xMidYMid" width="18" height="12" viewBox="0 0 18 12">
  <defs>
    <style>
      .cls-1 {
        fill: #fff;
        fill-rule: evenodd;
      }
    </style>
  </defs>
  <path d="M17.000,7.000 L1.000,7.000 C0.448,7.000 -0.000,6.552 -0.000,5.999 C-0.000,5.447 0.448,5.000 1.000,5.000 L17.000,5.000 C17.552,5.000 18.000,5.447 18.000,5.999 C18.000,6.552 17.552,7.000 17.000,7.000 ZM17.000,1.999 L1.000,1.999 C0.448,1.999 -0.000,1.552 -0.000,1.000 C-0.000,0.448 0.448,-0.000 1.000,-0.000 L17.000,-0.000 C17.552,-0.000 18.000,0.448 18.000,1.000 C18.000,1.552 17.552,1.999 17.000,1.999 ZM1.000,10.000 L17.000,10.000 C17.552,10.000 18.000,10.447 18.000,11.000 C18.000,11.552 17.552,12.000 17.000,12.000 L1.000,12.000 C0.448,12.000 -0.000,11.552 -0.000,11.000 C-0.000,10.447 0.448,10.000 1.000,10.000 Z" class="cls-1"/>
</svg>
