<svg xmlns="http://www.w3.org/2000/svg" xmlns:xlink="http://www.w3.org/1999/xlink" preserveAspectRatio="xMidYMid" width="12" height="15" viewBox="0 0 12 15">
  <defs>
    <style>
      .cls-1, .cls-2 {
        fill: #240a2b;
        fill-rule: evenodd;
      }

      .cls-2 {
        opacity: 0.5;
      }
    </style>
  </defs>
  <g>
    <path d="M-0.001,14.999 L-0.001,-0.001 L6.000,-0.001 L6.999,-0.001 L12.000,4.999 L12.000,14.999 L-0.001,14.999 ZM6.999,4.999 L6.999,0.998 L0.999,0.998 L0.999,14.000 L11.000,14.000 L11.000,4.999 L6.999,4.999 Z" class="cls-1"/>
    <path d="M1.999,11.999 L1.999,10.999 L10.000,10.999 L10.000,11.999 L1.999,11.999 ZM4.999,5.999 L10.000,5.999 L10.000,6.999 L4.999,6.999 L4.999,5.999 ZM1.999,5.999 L4.000,5.999 L4.000,6.999 L1.999,6.999 L1.999,5.999 ZM8.000,8.999 L1.999,8.999 L1.999,7.999 L8.000,7.999 L8.000,8.999 Z" class="cls-2"/>
  </g>
</svg>
