<svg xmlns="http://www.w3.org/2000/svg" xmlns:xlink="http://www.w3.org/1999/xlink" preserveAspectRatio="xMidYMid" width="14.031" height="14" viewBox="0 0 14.031 14">
  <defs>
    <style>
      .cls-1 {
        fill: #bbbbbf;
        fill-rule: evenodd;
      }
    </style>
  </defs>
  <g>
    <path d="M11.273,2.757 C8.930,0.413 5.131,0.413 2.788,2.757 C2.788,2.757 2.788,2.757 2.788,2.757 L2.081,2.050 C4.815,-0.684 9.247,-0.684 11.980,2.050 L11.273,2.757 C11.273,2.757 11.273,2.757 11.273,2.757 ZM11.273,11.242 L11.980,11.949 C11.980,11.949 11.980,11.949 11.980,11.949 C9.247,14.683 4.815,14.683 2.081,11.949 C2.081,11.949 2.081,11.949 2.081,11.949 L2.788,11.242 C5.131,13.585 8.930,13.585 11.273,11.242 Z" class="cls-1"/>
    <path d="M12.958,4.956 L9.958,4.956 L9.958,3.955 L12.958,3.955 L12.958,0.956 L13.958,0.956 L13.958,3.955 L13.958,4.956 L12.958,4.956 ZM1.015,12.955 L0.015,12.955 L0.015,9.955 L0.015,8.955 L1.015,8.955 L4.015,8.955 L4.015,9.955 L1.015,9.955 L1.015,12.955 Z" class="cls-1"/>
  </g>
</svg>
