<?xml version="1.0" encoding="utf-8"?>
<!-- Generator: Adobe Illustrator 16.0.0, SVG Export Plug-In . SVG Version: 6.00 Build 0)  -->
<!DOCTYPE svg PUBLIC "-//W3C//DTD SVG 1.1//EN" "http://www.w3.org/Graphics/SVG/1.1/DTD/svg11.dtd">
<svg version="1.1" id="Слой_1" xmlns="http://www.w3.org/2000/svg" xmlns:xlink="http://www.w3.org/1999/xlink" x="0px" y="0px"
	 width="23px" height="23px" viewBox="0 0 23 23" enable-background="new 0 0 23 23" xml:space="preserve">
<path fill="#74C9E4" d="M22.709,22.715c-0.391,0.391-1.023,0.391-1.414,0l-4.984-4.984c-3.928,3.22-9.732,2.996-13.398-0.672
	c-3.905-3.904-3.905-10.237,0-14.142c3.905-3.905,10.236-3.905,14.143,0c3.666,3.666,3.889,9.472,0.67,13.399l4.984,4.984
	C23.1,21.691,23.1,22.325,22.709,22.715z M15.641,4.33c-3.125-3.122-8.19-3.122-11.314,0s-3.124,8.184,0,11.307
	c3.124,3.121,8.189,3.121,11.314,0C18.764,12.514,18.764,7.452,15.641,4.33z"/>
</svg>
