<svg xmlns="http://www.w3.org/2000/svg" xmlns:xlink="http://www.w3.org/1999/xlink" preserveAspectRatio="xMidYMid" width="23" height="23" viewBox="0 0 23 23">
  <defs>
    <style>
      .cls-1 {
        fill: #fff;
        fill-rule: evenodd;
      }
    </style>
  </defs>
  <path d="M22.709,22.715 C22.318,23.106 21.685,23.106 21.295,22.715 L16.311,17.731 C12.383,20.950 6.578,20.726 2.912,17.059 C-0.993,13.154 -0.993,6.822 2.912,2.917 C6.817,-0.988 13.149,-0.988 17.054,2.917 C20.721,6.583 20.944,12.389 17.725,16.317 L22.709,21.301 C23.100,21.692 23.100,22.325 22.709,22.715 ZM15.640,4.330 C12.516,1.208 7.450,1.208 4.326,4.330 C1.202,7.452 1.202,12.514 4.326,15.636 C7.450,18.758 12.516,18.758 15.640,15.636 C18.764,12.514 18.764,7.452 15.640,4.330 Z" class="cls-1"/>
</svg>
