<svg xmlns="http://www.w3.org/2000/svg" xmlns:xlink="http://www.w3.org/1999/xlink" preserveAspectRatio="xMidYMid" width="13.91" height="11.59" viewBox="0 0 13.91 11.59">
  <defs>
    <style>
      .cls-1 {
        fill: #fff;
        fill-rule: evenodd;
      }
    </style>
  </defs>
  <path d="M13.905,1.371 C13.392,1.603 12.842,1.760 12.265,1.830 C12.855,1.468 13.307,0.894 13.519,0.212 C12.966,0.547 12.357,0.790 11.707,0.922 C11.186,0.355 10.445,-0.001 9.623,-0.001 C8.047,-0.001 6.769,1.309 6.769,2.924 C6.769,3.154 6.794,3.377 6.844,3.590 C4.471,3.468 2.369,2.303 0.961,0.532 C0.717,0.964 0.575,1.467 0.575,2.002 C0.575,3.017 1.080,3.913 1.845,4.436 C1.378,4.421 0.938,4.289 0.553,4.070 C0.553,4.083 0.553,4.093 0.553,4.106 C0.553,5.523 1.536,6.705 2.842,6.973 C2.603,7.039 2.350,7.075 2.090,7.075 C1.906,7.075 1.727,7.056 1.553,7.023 C1.916,8.184 2.971,9.031 4.218,9.054 C3.240,9.839 2.011,10.307 0.673,10.307 C0.442,10.307 0.216,10.292 -0.008,10.266 C1.254,11.095 2.755,11.581 4.367,11.581 C9.617,11.581 12.487,7.124 12.487,3.260 C12.487,3.132 12.485,3.006 12.479,2.881 C13.037,2.468 13.521,1.954 13.902,1.367 L13.905,1.371 Z" class="cls-1"/>
</svg>
