<svg xmlns="http://www.w3.org/2000/svg" xmlns:xlink="http://www.w3.org/1999/xlink" preserveAspectRatio="xMidYMid" width="9" height="10.38" viewBox="0 0 9 10.38">
  <defs>
    <style>
      .cls-1 {
        fill: #fff;
        fill-rule: evenodd;
      }
    </style>
  </defs>
  <path d="M8.365,5.522 C7.948,5.107 7.390,4.832 6.697,4.696 L6.697,4.641 C7.179,4.454 7.558,4.163 7.832,3.767 C8.108,3.372 8.244,2.921 8.244,2.414 C8.244,1.976 8.144,1.590 7.945,1.253 C7.747,0.921 7.444,0.652 7.042,0.452 C6.671,0.265 6.271,0.144 5.845,0.088 C5.419,0.028 4.792,-0.001 3.966,-0.001 L-0.010,-0.001 L-0.010,10.389 L4.495,10.389 C5.277,10.389 5.919,10.324 6.425,10.194 C6.934,10.063 7.398,9.846 7.821,9.539 C8.180,9.282 8.464,8.960 8.675,8.569 C8.887,8.179 8.993,7.723 8.993,7.207 C8.993,6.502 8.784,5.940 8.365,5.522 ZM2.803,1.904 L2.999,1.904 C3.502,1.904 3.881,1.907 4.137,1.914 C4.392,1.921 4.611,1.961 4.797,2.037 C4.996,2.117 5.141,2.246 5.233,2.421 C5.326,2.597 5.372,2.769 5.372,2.938 C5.372,3.165 5.329,3.365 5.243,3.538 C5.159,3.710 5.001,3.846 4.777,3.944 C4.570,4.032 4.369,4.080 4.175,4.089 C3.982,4.098 3.641,4.104 3.159,4.104 L2.803,4.104 L2.803,1.904 ZM5.905,7.830 C5.785,8.029 5.599,8.179 5.342,8.281 C5.050,8.398 4.761,8.460 4.480,8.469 C4.199,8.479 3.690,8.484 2.955,8.484 L2.803,8.484 L2.803,5.882 L3.324,5.882 C3.827,5.882 4.229,5.885 4.529,5.892 C4.829,5.899 5.065,5.932 5.236,5.995 C5.517,6.087 5.729,6.223 5.871,6.406 C6.012,6.588 6.082,6.838 6.082,7.159 C6.082,7.409 6.023,7.634 5.905,7.830 Z" class="cls-1"/>
</svg>
