<svg xmlns="http://www.w3.org/2000/svg" xmlns:xlink="http://www.w3.org/1999/xlink" preserveAspectRatio="xMidYMid" width="45.69" height="11.03" viewBox="0 0 45.69 11.03">
  <defs>
    <style>
      .cls-1 {
        fill: #fff;
        fill-rule: evenodd;
      }
    </style>
  </defs>
  <path d="M42.690,11.029 L24.690,11.029 C23.032,11.029 21.689,9.686 21.689,8.029 L21.689,3.029 C21.689,1.372 23.032,0.028 24.690,0.028 L42.690,0.028 C44.347,0.028 45.690,1.372 45.690,3.029 L45.690,8.029 C45.690,9.686 44.347,11.029 42.690,11.029 ZM28.689,2.029 L23.689,2.029 L23.689,3.029 L25.690,3.029 L25.690,9.029 L26.689,9.029 L26.689,3.029 L28.689,3.029 L28.689,2.029 ZM32.876,3.913 L31.616,3.913 L31.616,7.618 C31.497,7.737 30.773,7.834 30.632,7.910 C30.490,7.986 30.373,8.024 30.281,8.024 C30.162,8.024 30.077,7.995 30.023,7.938 C29.971,7.880 29.945,7.788 29.945,7.659 L29.945,3.913 L28.684,3.913 L28.684,8.035 C28.684,8.356 28.758,8.599 28.906,8.760 C29.054,8.921 29.273,9.002 29.565,9.002 C29.801,9.002 30.045,8.944 30.296,8.829 C30.547,8.714 31.383,8.546 31.616,8.326 L31.616,8.924 L32.876,8.924 L32.876,3.913 ZM37.569,4.191 C37.359,3.961 36.492,3.845 36.093,3.845 C35.898,3.845 35.705,3.887 35.513,3.973 C35.323,4.060 35.142,4.185 34.972,4.351 L34.972,1.987 L33.700,1.987 L33.700,8.893 L34.972,8.893 L34.972,8.476 C35.138,8.640 35.317,8.763 35.511,8.842 C35.704,8.921 36.486,8.961 36.732,8.961 C37.106,8.961 37.391,8.858 37.588,8.654 C37.786,8.450 37.885,8.155 37.885,7.770 L37.697,5.202 C37.697,4.761 37.780,4.423 37.569,4.191 ZM42.919,6.748 L42.919,5.370 C42.919,4.855 42.764,4.461 42.455,4.187 C42.145,3.913 41.171,3.777 40.594,3.777 C40.030,3.777 39.570,3.925 39.214,4.220 C38.857,4.516 38.680,4.899 38.680,5.370 L38.680,7.801 C38.680,8.322 38.842,8.732 39.166,9.029 C39.490,9.328 39.935,9.477 40.499,9.477 C41.127,9.477 42.129,9.336 42.446,9.056 C42.762,8.774 42.919,8.356 42.919,7.801 L42.690,8.029 L41.689,8.029 L41.622,7.771 C41.622,8.089 41.580,8.295 41.497,8.389 C41.414,8.481 40.737,8.528 40.527,8.528 C40.327,8.528 40.185,8.473 40.102,8.363 C40.019,8.253 39.977,8.055 39.977,7.771 L39.977,6.748 L42.919,6.748 ZM39.977,5.359 C39.977,5.133 40.021,4.970 40.108,4.872 C40.196,4.774 40.339,4.725 40.540,4.725 C40.732,4.725 41.403,4.774 41.491,4.872 C41.578,4.970 41.622,5.133 41.622,5.359 L41.622,5.908 L39.977,5.908 L39.977,5.359 ZM35.576,8.110 C35.468,8.110 35.367,8.091 35.271,8.051 C35.175,8.013 35.075,7.949 34.972,7.862 L34.972,4.923 C35.058,4.849 35.144,4.794 35.232,4.758 C35.320,4.723 35.409,4.704 35.499,4.704 C35.669,4.704 36.363,4.752 36.453,4.847 C36.543,4.942 36.588,5.081 36.588,5.264 L36.588,7.623 C36.588,7.795 36.551,7.920 36.478,7.996 C36.406,8.072 35.730,8.110 35.576,8.110 ZM16.816,9.226 C16.486,9.533 16.143,9.767 15.787,9.928 C15.431,10.087 15.084,10.168 14.749,10.168 C14.336,10.168 14.025,10.056 13.815,9.831 C13.605,9.606 13.500,9.269 13.500,8.820 L13.500,2.510 L15.288,2.510 L15.288,8.297 C15.288,8.476 15.326,8.605 15.400,8.686 C15.475,8.765 15.597,8.806 15.764,8.806 C15.896,8.806 16.062,8.753 16.262,8.646 C16.464,8.541 16.648,8.406 16.816,8.240 L16.816,2.510 L18.603,2.510 L18.603,10.060 L16.816,10.060 L16.816,9.226 ZM9.472,10.320 C8.692,10.320 8.067,10.130 7.599,9.750 C7.130,9.371 6.896,8.861 6.896,8.218 L6.896,4.305 C6.896,3.720 7.136,3.254 7.617,2.908 C8.097,2.561 8.743,2.388 9.554,2.388 C10.292,2.388 10.897,2.571 11.368,2.936 C11.840,3.301 12.076,3.772 12.076,4.347 L12.076,8.247 C12.076,8.893 11.844,9.400 11.382,9.767 C10.920,10.135 10.283,10.320 9.472,10.320 ZM10.257,4.247 C10.257,4.083 10.184,3.950 10.039,3.848 C9.894,3.747 9.703,3.696 9.467,3.696 C9.250,3.696 9.072,3.747 8.936,3.848 C8.800,3.950 8.733,4.083 8.733,4.247 L8.733,8.360 C8.733,8.568 8.796,8.728 8.923,8.841 C9.050,8.955 9.231,9.011 9.467,9.011 C9.709,9.011 9.901,8.954 10.044,8.838 C10.185,8.722 10.257,8.563 10.257,8.360 L10.257,4.247 ZM4.363,9.977 L2.369,9.977 L2.369,6.029 L-0.004,0.014 L2.005,0.014 L3.299,3.996 L3.424,3.996 L4.658,0.014 L6.685,0.014 L4.363,5.842 L4.363,9.977 Z" class="cls-1"/>
</svg>
