<svg xmlns="http://www.w3.org/2000/svg" xmlns:xlink="http://www.w3.org/1999/xlink" preserveAspectRatio="xMidYMid" width="13" height="11" viewBox="0 0 13 11">
  <defs>
    <style>
      .cls-1 {
        fill: #35adeb;
        fill-rule: evenodd;
      }
    </style>
  </defs>
  <path d="M11.999,7.998 L3.999,7.998 L3.000,7.998 L3.000,6.999 L3.000,1.999 L3.000,-0.001 L3.999,-0.001 L11.999,-0.001 L12.999,-0.001 L12.999,1.999 L12.999,6.999 L12.999,7.998 L11.999,7.998 ZM11.999,1.999 L3.999,1.999 L3.999,6.999 L11.999,6.999 L11.999,1.999 ZM1.000,9.999 L9.000,9.999 L9.000,8.998 L9.999,8.998 L9.999,9.999 L9.999,10.998 L9.000,10.998 L1.000,10.998 L-0.001,10.998 L-0.001,9.999 L-0.001,4.999 L-0.001,2.999 L1.000,2.999 L1.999,2.999 L1.999,4.999 L1.000,4.999 L1.000,9.999 Z" class="cls-1"/>
</svg>
