<?xml version="1.0" encoding="utf-8"?>
<!-- Generator: Adobe Illustrator 19.1.0, SVG Export Plug-In . SVG Version: 6.00 Build 0)  -->
<svg version="1.1" id="Слой_1" xmlns="http://www.w3.org/2000/svg" xmlns:xlink="http://www.w3.org/1999/xlink" x="0px" y="0px"
	 viewBox="-272 395.9 50 50" style="enable-background:new -272 395.9 50 50;" xml:space="preserve">
<style type="text/css">
	.st0{fill:#343434;}
</style>
<g id="_x35__2_">
	<g>
		<path class="st0" d="M-247,409.9c-3.9,0-7,3.1-7,7c0,3.9,3.1,7,7,7s7-3.1,7-7C-240,413-243.1,409.9-247,409.9z M-247,421.9
			c-2.8,0-5-2.2-5-5c0-2.8,2.2-5,5-5s5,2.2,5,5C-242,419.7-244.2,421.9-247,421.9z M-236,422.3c0.8-1.6,1.3-3.4,1.3-5.3
			c0-6.7-5.5-12.1-12.3-12.1c-6.8,0-12.3,5.4-12.3,12.1c0,1.9,0.5,3.7,1.3,5.3l-5,8.5c0,0,3.2,0.6,6.4,1.3c2.1,2.4,4.3,4.8,4.3,4.8
			l4.6-7.8c0.3,0,0.5,0,0.8,0s0.5,0,0.8,0l4.6,7.8c0,0,2.1-2.4,4.3-4.8c3.2-0.7,6.4-1.3,6.4-1.3L-236,422.3z M-252.5,433.5
			c0,0-1.6-1.5-3.1-3c-2.1-0.6-4.3-1.2-4.3-1.2l3-5.2c1.8,2.3,4.3,4,7.2,4.7L-252.5,433.5z M-247,427.2c-5.7,0-10.3-4.6-10.3-10.3
			c0-5.7,4.6-10.3,10.3-10.3s10.3,4.6,10.3,10.3C-236.7,422.6-241.3,427.2-247,427.2z M-238.4,430.5c-1.5,1.5-3.1,3-3.1,3l-2.8-4.7
			c2.9-0.7,5.4-2.4,7.2-4.7l3,5.2C-234.1,429.2-236.2,429.9-238.4,430.5z"/>
	</g>
</g>
</svg>
