<?xml version="1.0" encoding="utf-8"?>
<!-- Generator: Adobe Illustrator 16.0.0, SVG Export Plug-In . SVG Version: 6.00 Build 0)  -->
<!DOCTYPE svg PUBLIC "-//W3C//DTD SVG 1.1//EN" "http://www.w3.org/Graphics/SVG/1.1/DTD/svg11.dtd">
<svg version="1.1" id="Слой_1" xmlns="http://www.w3.org/2000/svg" xmlns:xlink="http://www.w3.org/1999/xlink" x="0px" y="0px"
	 width="50px" height="50px" viewBox="0 0 50 50" enable-background="new 0 0 50 50" xml:space="preserve">
<g id="Фигура_4">
	<g>
		<path fill-rule="evenodd" clip-rule="evenodd" fill="#F14C69" d="M36,37.5c0,0,0.104,1-1,1H11c0,0-1,0.104-1-1v-25
			c0,0-0.104-1,1-1h25v-2H10c-1.104,0-2,0.896-2,2v27c0,1.104,0.896,2,2,2h26c1.104,0,2-0.896,2-2v-11h-2V37.5z M41,11.5v1h-1v1h-1
			v1h-1v1h-1v1h-1v1h-1v1h-1v1h-1v1h-1v1h-1v1h-1v1h-1v1h-1v1h-1v1c0,0-0.95-0.097-1,0s0.31,1.089,0,1s-1,0-1,0v1h-2v-1h-1v-1h-1v-1
			h-1v-1h-1v-1h-1v3h1v1h1v1h1v1h1v1h1v1h2v-1h1c0,0-0.125-1,0-1s1,0,1,0v-1h1v-1h1v-1h1v-1h1v-1h1v-1h1v-1h1v-1h1v-1h1v-1h1v-1h1
			v-1h1v-1h1v-1h1v-1h1v-3H41z"/>
	</g>
</g>
</svg>
