<?xml version="1.0" encoding="utf-8"?>
<svg xmlns="http://www.w3.org/2000/svg"
	xmlns:xlink="http://www.w3.org/1999/xlink"
	width="50px" height="50px" viewBox="0 0 50 50">
<path fillRule="evenodd" d="M 50.01 47.17C 50.01 47.17 47.17 50.01 47.17 50.01 47.17 50.01 25 27.84 25 27.84 25 27.84 2.83 50.01 2.83 50.01 2.83 50.01-0.01 47.17-0.01 47.17-0.01 47.17 22.16 25 22.16 25 22.16 25-0.01 2.83-0.01 2.83-0.01 2.83 2.83-0.01 2.83-0.01 2.83-0.01 25 22.16 25 22.16 25 22.16 47.17-0.01 47.17-0.01 47.17-0.01 50.01 2.83 50.01 2.83 50.01 2.83 27.84 25 27.84 25 27.84 25 50.01 47.17 50.01 47.17Z" fill="rgb(234,0,41)"/></svg>