<?xml version="1.0" encoding="utf-8"?>
<!-- Generator: Adobe Illustrator 16.0.0, SVG Export Plug-In . SVG Version: 6.00 Build 0)  -->
<!DOCTYPE svg PUBLIC "-//W3C//DTD SVG 1.1//EN" "http://www.w3.org/Graphics/SVG/1.1/DTD/svg11.dtd">
<svg version="1.1" id="Слой_1" xmlns="http://www.w3.org/2000/svg" xmlns:xlink="http://www.w3.org/1999/xlink" x="0px" y="0px"
	 width="40px" height="55px" viewBox="0 0 40 55" enable-background="new 0 0 40 55" xml:space="preserve">
<g id="Прямоугольник_70_2_">
	<g>
		<path fill="#343434" d="M10,37.321h2v1.964h2v1.964h2v1.966h2v1.964h4v-1.964h1.999v-1.966h2.002v-1.964H28v-1.964h2v-1.964h2
			v-3.93c0,0-4.114-0.077-4,0c0.115,0.076,0,1.966,0,1.966h-1.999c0,0-0.21,1.684-0.059,1.923c-0.342-0.043-1.943,0.041-1.943,0.041
			v1.964H22V0h-4v37.321h-2v-1.964h-2v-1.964h-2v-1.966H8v3.93h2V37.321z M0,51.07V55h40v-3.93H0z"/>
	</g>
</g>
</svg>
