<?xml version="1.0" encoding="utf-8"?>
<!-- Generator: Adobe Illustrator 16.0.0, SVG Export Plug-In . SVG Version: 6.00 Build 0)  -->
<!DOCTYPE svg PUBLIC "-//W3C//DTD SVG 1.1//EN" "http://www.w3.org/Graphics/SVG/1.1/DTD/svg11.dtd">
<svg version="1.1" id="Слой_1" xmlns="http://www.w3.org/2000/svg" xmlns:xlink="http://www.w3.org/1999/xlink" x="0px" y="0px"
	 width="50px" height="50px" viewBox="0 0 50 50" enable-background="new 0 0 50 50" xml:space="preserve">
<g id="Прямоугольник_70_2_">
	<g>
		<path fill-rule="evenodd" clip-rule="evenodd" fill="#343434" d="M20,30h1v1h1v1h1v1h1v1h2v-1h1v-1h1v-1h1v-1h1v-1h1v-2
			c0,0-2.058-0.039-2,0c0.057,0.038,0,1,0,1h-1c0,0-0.104,0.858-0.028,0.98C27.8,28.957,27,29,27,29v1h-1V11h-2v19h-1v-1h-1v-1h-1
			v-1h-2v2h1V30z M15,37v2h20v-2H15z"/>
	</g>
</g>
</svg>
