<?xml version="1.0" encoding="utf-8"?>
<!-- Generator: Adobe Illustrator 16.0.0, SVG Export Plug-In . SVG Version: 6.00 Build 0)  -->
<!DOCTYPE svg PUBLIC "-//W3C//DTD SVG 1.1//EN" "http://www.w3.org/Graphics/SVG/1.1/DTD/svg11.dtd">
<svg version="1.1" id="Слой_1" xmlns="http://www.w3.org/2000/svg" xmlns:xlink="http://www.w3.org/1999/xlink" x="0px" y="0px"
	 width="108px" height="108px" viewBox="0 0 108 108" enable-background="new 0 0 108 108" xml:space="preserve">
<g id="Facebook_Logo_Button._Attribute_as_Bogdan_Rosu_from_Flaticon.com_копия_3_">
	<g>
		<path fill="#4F4F4F" d="M25,6.005C14.526,6.005,6.006,14.526,6.006,25S14.526,43.994,25,43.994S43.994,35.474,43.994,25
			S35.474,6.005,25,6.005z M29.724,25.669h-3.09c0,4.937,0,11.015,0,11.015h-4.58c0,0,0-6.02,0-11.015h-2.176v-3.894h2.176v-2.518
			c0-1.804,0.857-4.621,4.621-4.621l3.393,0.013v3.778c0,0-2.063,0-2.463,0c-0.401,0-0.971,0.201-0.971,1.062v2.287h3.489
			L29.724,25.669z"/>
	</g>
</g>
</svg>
