<?xml version="1.0" encoding="utf-8"?>
<!-- Generator: Adobe Illustrator 16.0.0, SVG Export Plug-In . SVG Version: 6.00 Build 0)  -->
<!DOCTYPE svg PUBLIC "-//W3C//DTD SVG 1.1//EN" "http://www.w3.org/Graphics/SVG/1.1/DTD/svg11.dtd">
<svg version="1.1" id="Слой_1" xmlns="http://www.w3.org/2000/svg" xmlns:xlink="http://www.w3.org/1999/xlink" x="0px" y="0px"
	 width="52px" height="52px" viewBox="0 0 52 52" enable-background="new 0 0 52 52" xml:space="preserve">
<g id="Facebook_Logo_Button._Attribute_as_Bogdan_Rosu_from_Flaticon.com_копия_3_">
	<g>
		<path fill="#4F4F4F" d="M26,0C11.661,0,0,11.663,0,26c0,14.338,11.661,26,26,26c14.338,0,26-11.662,26-26C52,11.663,40.338,0,26,0
			z M32.467,26.915h-4.229c0,6.758,0,15.077,0,15.077h-6.269c0,0,0-8.238,0-15.077h-2.98v-5.33h2.98v-3.446
			c0-2.47,1.172-6.326,6.325-6.326l4.646,0.02v5.169c0,0-2.825,0-3.372,0c-0.549,0-1.33,0.275-1.33,1.455v3.128h4.776L32.467,26.915
			z"/>
	</g>
</g>
</svg>
