<?xml version="1.0" encoding="utf-8"?>
<!-- Generator: Adobe Illustrator 16.0.0, SVG Export Plug-In . SVG Version: 6.00 Build 0)  -->
<!DOCTYPE svg PUBLIC "-//W3C//DTD SVG 1.1//EN" "http://www.w3.org/Graphics/SVG/1.1/DTD/svg11.dtd">
<svg version="1.1" id="Слой_1" xmlns="http://www.w3.org/2000/svg" xmlns:xlink="http://www.w3.org/1999/xlink" x="0px" y="0px"
	 width="38px" height="38px" viewBox="0 0 38 38" enable-background="new 0 0 38 38" xml:space="preserve">
<g id="Forma_1">
	<g>
		<path fill="#4F4F4F" d="M18.999,22.804c2.098,0,3.807-1.705,3.807-3.804c0-0.828-0.271-1.592-0.722-2.218
			c-0.69-0.958-1.814-1.586-3.084-1.586s-2.394,0.628-3.085,1.586c-0.45,0.625-0.719,1.39-0.721,2.217
			C15.194,21.099,16.901,22.804,18.999,22.804z M27.305,14.347v-3.188v-0.475l-0.477,0.001l-3.188,0.011l0.014,3.662L27.305,14.347z
			 M19,0C8.523,0,0,8.523,0,19c0,10.478,8.523,19,19,19c10.478,0,19-8.522,19-19C38,8.523,29.478,0,19,0z M29.806,16.782v8.848
			c0,2.304-1.874,4.178-4.176,4.178H12.372c-2.305,0-4.178-1.874-4.178-4.178v-8.848v-4.411c0-2.304,1.873-4.176,4.178-4.176h13.257
			c2.303,0,4.177,1.872,4.177,4.176V16.782z M24.91,19c0,3.258-2.65,5.911-5.91,5.911S13.09,22.258,13.09,19
			c0-0.783,0.156-1.532,0.436-2.218h-3.227v8.848c0,1.144,0.929,2.069,2.071,2.069h13.257c1.144,0,2.069-0.926,2.069-2.069v-8.848
			h-3.226C24.752,17.468,24.91,18.217,24.91,19z"/>
	</g>
</g>
</svg>
