<?xml version="1.0" encoding="utf-8"?>
<!-- Generator: Adobe Illustrator 16.0.0, SVG Export Plug-In . SVG Version: 6.00 Build 0)  -->
<!DOCTYPE svg PUBLIC "-//W3C//DTD SVG 1.1//EN" "http://www.w3.org/Graphics/SVG/1.1/DTD/svg11.dtd">
<svg version="1.1" id="Слой_1" xmlns="http://www.w3.org/2000/svg" xmlns:xlink="http://www.w3.org/1999/xlink" x="0px" y="0px"
	 width="50px" height="50px" viewBox="0 0 50 50" enable-background="new 0 0 50 50" xml:space="preserve">
<g id="Pencil">
	<g>
		<path fill-rule="evenodd" clip-rule="evenodd" fill="#fff" d="M36.6,13.398C35.698,12.496,34.499,12,33.223,12
			c-1.274,0-2.474,0.496-3.375,1.396L15.489,27.674c-0.085,0.084-0.149,0.186-0.19,0.298l-3.25,8.938
			c-0.105,0.289-0.038,0.613,0.175,0.837C12.379,37.911,12.594,38,12.813,38c0.079,0,0.159-0.012,0.238-0.036l8.083-2.479
			c0.127-0.039,0.243-0.108,0.337-0.202L36.6,20.153c0.902-0.901,1.4-2.102,1.4-3.378C37.999,15.5,37.502,14.301,36.6,13.398z
			 M21,34c0,0-3.312,0.719-5,1c-0.564,0.094-1,0-1,0v-1l2-5h2v2l2,1V34z M32.16,22.295l-9.899,9.9l0.284-1.339
			c0.051-0.24-0.01-0.49-0.164-0.681S21.245,30,21,30h-1v-2c0-0.449-0.238-0.563-0.688-0.563h-1.281l9.663-9.608l0.01,0.009
			c0.595-0.595,1.386-0.922,2.228-0.922s1.633,0.327,2.229,0.922c0.595,0.596,0.924,1.387,0.924,2.229
			C33.084,20.909,32.756,21.7,32.16,22.295z M35.451,19.004l-0.758,0.758c-0.073-1.16-0.555-2.242-1.385-3.072
			c-0.83-0.831-1.914-1.312-3.075-1.384l0.76-0.757l0.002-0.001c0.595-0.596,1.386-0.923,2.228-0.923
			c0.843,0,1.634,0.327,2.229,0.923c0.595,0.595,0.924,1.387,0.924,2.229S36.047,18.409,35.451,19.004z M30.113,18.738l-8.125,8.125
			c-0.318,0.316-0.318,0.831,0,1.148c0.158,0.158,0.366,0.238,0.574,0.238s0.415-0.08,0.574-0.238l8.125-8.125
			c0.317-0.317,0.317-0.832,0-1.148C30.944,18.42,30.43,18.42,30.113,18.738z"/>
	</g>
</g>
</svg>
