<?xml version="1.0" encoding="utf-8"?>
<!-- Generator: Adobe Illustrator 16.0.0, SVG Export Plug-In . SVG Version: 6.00 Build 0)  -->
<!DOCTYPE svg PUBLIC "-//W3C//DTD SVG 1.1//EN" "http://www.w3.org/Graphics/SVG/1.1/DTD/svg11.dtd">
<svg version="1.1" id="Слой_1" xmlns="http://www.w3.org/2000/svg" xmlns:xlink="http://www.w3.org/1999/xlink" x="0px" y="0px"
	 width="52px" height="52px" viewBox="0 0 52 52" enable-background="new 0 0 52 52" xml:space="preserve">
<g id="Pencil">
	<g>
		<path fill="#EB0029" d="M49.199,2.796C47.396,0.992,44.998,0,42.445,0c-2.547,0-4.947,0.992-6.75,2.792L6.978,31.348
			c-0.17,0.168-0.298,0.371-0.38,0.598l-6.5,17.875c-0.21,0.578-0.075,1.227,0.351,1.674C0.758,51.822,1.188,52,1.626,52
			c0.158,0,0.318-0.023,0.476-0.072l16.166-4.959c0.255-0.078,0.486-0.215,0.675-0.402l30.257-30.261
			C51.004,14.504,52,12.102,52,9.55C51.998,7,51.004,4.602,49.199,2.796z M18,44c0,0-6.624,1.438-10,2c-1.128,0.188-2,0-2,0v-2l4-10
			h4v4l4,2V44z M40.32,20.59L20.522,40.391l0.567-2.68c0.103-0.479-0.02-0.979-0.328-1.361C20.454,35.969,18.49,36,18,36h-2v-4
			c0-0.898-0.476-1.125-1.376-1.125h-2.563l19.325-19.217l0.021,0.018c1.189-1.189,2.771-1.844,4.455-1.844s3.266,0.654,4.459,1.844
			c1.189,1.192,1.848,2.774,1.848,4.458C42.168,17.818,41.512,19.4,40.32,20.59z M46.902,14.008l-1.516,1.517
			c-0.146-2.32-1.109-4.484-2.77-6.145c-1.66-1.662-3.828-2.624-6.152-2.768l1.521-1.515l0.004-0.002
			c1.189-1.191,2.771-1.846,4.455-1.846c1.688,0,3.27,0.654,4.459,1.846c1.189,1.19,1.848,2.774,1.848,4.458
			C48.752,11.238,48.094,12.818,46.902,14.008z M36.227,13.476L19.976,29.727c-0.636,0.633-0.636,1.66,0,2.295
			c0.316,0.316,0.732,0.477,1.148,0.477s0.83-0.16,1.148-0.477l16.251-16.25c0.633-0.634,0.633-1.663,0-2.296
			C37.887,12.84,36.859,12.84,36.227,13.476z"/>
	</g>
</g>
</svg>
