<?xml version="1.0" encoding="utf-8"?>
<!-- Generator: Adobe Illustrator 16.0.0, SVG Export Plug-In . SVG Version: 6.00 Build 0)  -->
<!DOCTYPE svg PUBLIC "-//W3C//DTD SVG 1.1//EN" "http://www.w3.org/Graphics/SVG/1.1/DTD/svg11.dtd">
<svg version="1.1" id="Слой_1" xmlns="http://www.w3.org/2000/svg" xmlns:xlink="http://www.w3.org/1999/xlink" x="0px" y="0px"
	 width="52px" height="52px" viewBox="0 0 52 52" enable-background="new 0 0 52 52" xml:space="preserve">
<g id="Twitter_Logo_In_Circular_Black_Button._Attribute_as_Linh_Pham_from_Flaticon.com_копия">
	<g>
		<path fill="#55ACEE" d="M26,0C11.641,0,0,11.641,0,26c0,14.358,11.641,26,26,26c14.358,0,26-11.642,26-26C52,11.641,40.358,0,26,0
			z M37.132,20.048c0.013,0.261,0.018,0.521,0.018,0.781c0,7.974-5.782,17.172-16.345,17.167c-3.241,0.002-6.263-1.014-8.804-2.76
			c0.449,0.057,0.908,0.087,1.371,0.087c2.691,0.006,5.168-0.965,7.132-2.595c-2.515-0.061-4.634-1.837-5.363-4.278
			c0.349,0.076,0.711,0.117,1.079,0.12c0.525,0.002,1.031-0.069,1.513-0.204c-2.628-0.583-4.61-3.075-4.61-6.046v-0.08
			c0.774,0.469,1.659,0.753,2.602,0.795c-1.538-1.112-2.553-3.003-2.553-5.131c0-1.124,0.283-2.175,0.778-3.075
			c2.835,3.748,7.067,6.234,11.839,6.544c-0.099-0.446-0.149-0.913-0.149-1.388c0-3.358,2.574-6.04,5.744-5.986
			c1.655,0.027,3.147,0.785,4.193,1.977c1.309-0.253,2.537-0.732,3.647-1.406c-0.428,1.399-1.339,2.568-2.53,3.301
			c1.166-0.131,2.271-0.437,3.301-0.902C39.228,18.165,38.253,19.214,37.132,20.048z"/>
	</g>
</g>
</svg>
