<?xml version="1.0" encoding="utf-8"?>
<!-- Generator: Adobe Illustrator 16.0.0, SVG Export Plug-In . SVG Version: 6.00 Build 0)  -->
<!DOCTYPE svg PUBLIC "-//W3C//DTD SVG 1.1//EN" "http://www.w3.org/Graphics/SVG/1.1/DTD/svg11.dtd">
<svg version="1.1" id="Слой_1" xmlns="http://www.w3.org/2000/svg" xmlns:xlink="http://www.w3.org/1999/xlink" x="0px" y="0px"
	 width="38px" height="38px" viewBox="0 0 38 38" enable-background="new 0 0 38 38" xml:space="preserve">
<g id="Twitter_Logo_In_Circular_Black_Button._Attribute_as_Linh_Pham_from_Flaticon.com_копия">
	<g>
		<path fill="#4F4F4F" d="M19,0C8.507,0,0,8.507,0,19c0,10.492,8.507,19,19,19s19-8.508,19-19C38,8.507,29.493,0,19,0z
			 M27.135,14.651c0.009,0.19,0.013,0.38,0.013,0.57c0,5.827-4.226,12.549-11.945,12.545c-2.368,0.002-4.576-0.74-6.433-2.016
			c0.328,0.041,0.663,0.063,1.002,0.063c1.967,0.004,3.777-0.705,5.212-1.896c-1.838-0.044-3.387-1.343-3.92-3.126
			c0.255,0.055,0.52,0.085,0.789,0.087c0.384,0.002,0.753-0.051,1.105-0.149c-1.921-0.426-3.369-2.247-3.369-4.418v-0.058
			c0.566,0.342,1.213,0.55,1.901,0.581c-1.124-0.813-1.865-2.195-1.865-3.75c0-0.821,0.207-1.589,0.568-2.247
			c2.072,2.739,5.165,4.556,8.652,4.782c-0.072-0.326-0.109-0.667-0.109-1.014c0-2.454,1.88-4.414,4.197-4.375
			c1.21,0.02,2.3,0.574,3.064,1.445c0.957-0.185,1.854-0.536,2.666-1.028c-0.313,1.023-0.979,1.877-1.849,2.412
			c0.852-0.095,1.66-0.319,2.412-0.659C28.666,13.274,27.954,14.041,27.135,14.651z"/>
	</g>
</g>
</svg>
