<?xml version="1.0" encoding="utf-8"?>
<!-- Generator: Adobe Illustrator 16.0.0, SVG Export Plug-In . SVG Version: 6.00 Build 0)  -->
<!DOCTYPE svg PUBLIC "-//W3C//DTD SVG 1.1//EN" "http://www.w3.org/Graphics/SVG/1.1/DTD/svg11.dtd">
<svg version="1.1" id="Слой_1" xmlns="http://www.w3.org/2000/svg" xmlns:xlink="http://www.w3.org/1999/xlink" x="0px" y="0px"
	 width="50px" height="50px" viewBox="0 0 50 50" enable-background="new 0 0 50 50" xml:space="preserve">
<g id="Shape_76">
	<g>
		<path fill-rule="evenodd" clip-rule="evenodd" fill="#EB0029" d="M23.5,30.999c4.136,0,7.5-4.094,7.5-9.125
			c0-5.032-3.364-9.125-7.5-9.125c-2.046,0-3.956,0.979-5.378,2.755c-1.369,1.711-2.123,3.974-2.122,6.37
			C16,26.905,19.364,30.999,23.5,30.999z M23.5,14.749c3.032,0,5.5,3.196,5.5,7.125s-2.468,7.125-5.5,7.125s-5.5-3.196-5.502-7.125
			C17.998,17.945,20.466,14.749,23.5,14.749z M29.799,29.999c-0.553,0-1,0.448-1,1c0,0.553,0.447,1,1,1
			c3.419,0,6.201,2.781,6.201,6.2c0,0.441-0.359,0.8-0.801,0.8h-23.4c-0.44,0-0.799-0.358-0.799-0.8c0-3.419,2.781-6.2,6.199-6.2
			c0.553,0,1-0.447,1-1c0-0.552-0.447-1-1-1c-4.521,0-8.199,3.679-8.199,8.2c0,1.544,1.256,2.8,2.799,2.8L32.049,41l3.15-0.001
			c1.544,0,2.801-1.256,2.801-2.8C38,33.678,34.321,29.999,29.799,29.999z M24.231,11.638c0.716-0.424,1.479-0.639,2.269-0.639
			c3.032,0,5.5,3.196,5.5,7.125c0,0.704-0.078,1.396-0.233,2.057c-0.126,0.538,0.208,1.076,0.745,1.202
			c0.077,0.018,0.153,0.026,0.229,0.026c0.454,0,0.864-0.311,0.973-0.771C33.903,19.827,34,18.982,34,18.124
			c0-5.031-3.364-9.125-7.5-9.125c-1.137,0-2.272,0.317-3.286,0.916c-0.476,0.282-0.633,0.896-0.352,1.37
			C23.144,11.761,23.758,11.919,24.231,11.638z M33,25.999c-0.553,0-1,0.448-1,1s0.447,1,1,1c3.419,0,6,2.849,6,6.268
			c0,0.114-0.022,0.225-0.068,0.326c-0.224,0.505,0.003,1.096,0.508,1.319c0.132,0.06,0.27,0.087,0.405,0.087
			c0.384,0,0.749-0.222,0.915-0.594c0.159-0.359,0.24-0.742,0.24-1.139C41,29.745,37.522,25.999,33,25.999z"/>
	</g>
</g>
</svg>
