<?xml version="1.0" encoding="utf-8"?>
<!-- Generator: Adobe Illustrator 19.1.0, SVG Export Plug-In . SVG Version: 6.00 Build 0)  -->
<svg version="1.1" id="Слой_1" xmlns="http://www.w3.org/2000/svg" xmlns:xlink="http://www.w3.org/1999/xlink" x="0px" y="0px"
	 viewBox="-272 395.9 50 50" style="enable-background:new -272 395.9 50 50;" xml:space="preserve">
<style type="text/css">
	.st0{fill:#EB0029;}
</style>
<g id="Фигура_4">
	<g>
		<path class="st0" d="M-236,433.4c0,0,0.1,1-1,1h-20.1c0,0-1,0.1-1-1v-26c0,0-0.1-1,1-1h21.1v-2h-22.1c-1.1,0-2,0.9-2,2v28
			c0,1.1,0.9,2,2,2h22.1c1.1,0,2-0.9,2-2v-11h-2V433.4z M-231,407.4l-17.1,17l-4.9-5v3l5,5l17-17V407.4z"/>
	</g>
</g>
</svg>
