<?xml version="1.0" encoding="utf-8"?>
<!-- Generator: Adobe Illustrator 19.1.0, SVG Export Plug-In . SVG Version: 6.00 Build 0)  -->
<svg version="1.1" id="Слой_1" xmlns="http://www.w3.org/2000/svg" xmlns:xlink="http://www.w3.org/1999/xlink" x="0px" y="0px"
	 viewBox="-272 395.9 50 50" style="enable-background:new -272 395.9 50 50;" xml:space="preserve">
<style type="text/css">
	.st0{fill:#EB0029;}
</style>
<g>
	<g>
		<path class="st0" d="M-237,404.9h-9h-2c0,0-7.3,0-9,0c-1.7,0-3,1.4-3,3v26v0v0.1c0,0.2,0,0.4,0.1,0.6c0.3,1.3,1.4,2.3,2.7,2.3
			h20.5c1.3,0,2.4-1,2.7-2.3c0-0.2,0.1-0.4,0.1-0.6v-0.1v0v-26C-234,406.3-235.3,404.9-237,404.9z M-236,434c0,0.1-0.1,0.4-0.3,0.6
			c0,0,0,0,0,0c0,0,0,0,0,0c-0.2,0.2-0.5,0.2-0.6,0.2c0,0-0.1,0-0.1,0c-0.9,0-20,0-20,0c0,0-0.1,0-0.1,0c-0.1,0-0.4-0.1-0.6-0.2
			c0,0,0,0,0,0c0,0,0,0,0,0c-0.2-0.2-0.2-0.5-0.3-0.6c0,0,0,0,0-0.1c0-7.4,0-26,0-26c0-0.8,0.7-1,0.9-1c0,0,0,0,0.1,0h20
			c0,0,0,0,0.1,0c0.2,0,0.9,0.2,0.9,1L-236,434C-236,433.9-236,433.9-236,434z"/>
		<g>
			<rect x="-254" y="427.9" class="st0" width="14" height="2"/>
			<rect x="-254" y="423.9" class="st0" width="14" height="2"/>
			<rect x="-254" y="411.9" class="st0" width="9" height="2"/>
			<rect x="-254" y="419.9" class="st0" width="14" height="2"/>
			<rect x="-254" y="415.9" class="st0" width="14" height="2"/>
		</g>
	</g>
</g>
</svg>
